# xmcd
#
# Track frame offsets:
#	150
#	10562
#	23033
#	32347
#	43715
#	53505
#	67171
#	76487
#	85529
#	94837
#	106559
#	116249
#	125622
#	134079
#	145628
#
# Disc length: 2129 seconds
#
# Revision: 0
# Processed by: cddbd v1.5.1PL2 Copyright (c) Steve Scherf et al.
# Submitted via: dBpowerAMP V4.0
#
DISCID=b9084f0f
DTITLE=Mickey Gilley - Mickey Gilley
DYEAR=1999
DGENRE=Country
TTITLE0=Grapevine
TTITLE1=Don't the girls all get prettier
TTITLE2=Caught in the middle
TTITLE3=Blaze of glory
TTITLE4=I miss you so
TTITLE5=I'll make it all up to you
TTITLE6=Keepin'  on
TTITLE7=In the want ads
TTITLE8=Lotta lovin'
TTITLE9=Valley of tears
TTITLE10=That's how it's got to be
TTITLE11=Night after night
TTITLE12=Is it wrong
TTITLE13=You can count me missing
TTITLE14=Your memory ain't what it used
EXTD=
EXTT0=
EXTT1=
EXTT2=
EXTT3=
EXTT4=
EXTT5=
EXTT6=
EXTT7=
EXTT8=
EXTT9=
EXTT10=
EXTT11=
EXTT12=
EXTT13=
EXTT14=
PLAYORDER=
